# xmcd
# 
# Track frame offsets:
#     180
#     14530
#     32380
#     44792
#     86307
#     102405
#     122447
#     142185
#     154310
#     189245
# 
# Disc length: 2737
# 
# Revision: 8
# Processed by: cddbd v1.5.2PL0 Copyright (c) Steve Scherf et al.
# Submitted via: fre:ac v1.0.31
# 
DISCID=7f0aaf0a
DTITLE=Jethro Tull - Stormwatch
DYEAR=1979
DGENRE=Progressive Rock
TTITLE0=North Sea Oil
TTITLE1=Orion
TTITLE2=Home
TTITLE3=Dark Ages
TTITLE4=Warm Sporran
TTITLE5=Something's on the Move
TTITLE6=Old Ghosts
TTITLE7=Dun Ringill
TTITLE8=Flying Dutchman
TTITLE9=Elegy
EXTD=
EXTT0=
EXTT1=
EXTT2=
EXTT3=
EXTT4=
EXTT5=
EXTT6=
EXTT7=
EXTT8=
EXTT9=
PLAYORDER=
